<?xml version="1.0" standalone="no"?>
<!DOCTYPE svg PUBLIC "-//W3C//DTD SVG 20010904//EN"
 "http://www.w3.org/TR/2001/REC-SVG-20010904/DTD/svg10.dtd">
<svg version="1.0" xmlns="http://www.w3.org/2000/svg"
 width="1822.000000pt" height="686.000000pt" viewBox="0 0 1822.000000 686.000000"
 preserveAspectRatio="xMidYMid meet">
<metadata>
Created by potrace 1.16, written by Peter Selinger 2001-2019
</metadata>
<g transform="translate(0.000000,686.000000) scale(0.100000,-0.100000)"
fill="#0075BC" stroke="none">
<path d="M3532 6759 c-299 -39 -639 -206 -876 -430 -169 -160 -275 -306 -376
-514 -134 -279 -189 -523 -197 -887 l-5 -217 -47 5 c-500 59 -892 231 -1161
510 -94 98 -166 206 -200 301 -22 61 -37 77 -63 67 -8 -3 -34 -69 -58 -147
-43 -139 -44 -145 -44 -282 0 -120 3 -150 23 -210 67 -198 178 -323 384 -430
175 -91 379 -155 623 -196 104 -18 174 -22 350 -23 121 -1 242 1 270 4 l49 4
48 -98 c27 -53 46 -101 43 -105 -2 -5 -28 -11 -57 -14 -90 -11 -291 -64 -425
-113 -449 -163 -879 -454 -1155 -783 -265 -317 -422 -664 -484 -1073 -25 -159
-25 -468 0 -603 53 -296 182 -546 390 -763 657 -682 1859 -811 2641 -283 345
232 562 561 647 983 20 100 23 141 23 358 -1 230 -2 252 -27 357 -84 354 -278
606 -582 753 -216 105 -450 133 -707 84 -369 -70 -703 -328 -774 -599 -71
-274 103 -567 380 -639 75 -20 224 -20 298 -1 263 68 436 319 399 580 -17 119
-66 210 -164 309 -44 45 -77 87 -76 95 5 24 112 62 192 68 288 22 559 -229
664 -615 23 -87 26 -114 26 -272 0 -193 -11 -250 -77 -415 -188 -467 -711
-784 -1297 -785 -577 0 -1010 366 -1125 952 -23 113 -31 373 -16 479 56 396
258 777 585 1105 272 273 551 435 865 504 47 11 100 20 117 20 18 0 104 -32
200 -76 413 -186 513 -214 631 -179 196 58 268 305 133 458 -49 56 -108 81
-235 101 -121 19 -362 39 -375 31 -13 -8 -76 133 -105 232 -57 195 -80 524
-51 740 67 506 311 972 606 1155 133 83 309 125 410 98 63 -17 149 -106 179
-185 46 -122 51 -202 21 -321 -70 -276 -357 -617 -712 -848 -91 -59 -277 -155
-340 -176 -21 -6 -38 -14 -38 -16 0 -3 7 -37 16 -77 23 -102 75 -207 138 -274
l53 -57 114 28 c913 224 1409 736 1409 1453 0 127 -18 226 -58 322 -121 288
-446 510 -805 550 -106 12 -124 12 -215 0z"/>
<path d="M4846 5277 c-37 -55 -122 -253 -162 -372 -71 -216 -88 -326 -89 -565
0 -113 2 -246 5 -295 l5 -90 -295 -455 c-196 -303 -296 -466 -298 -488 -7 -57
52 -102 133 -102 51 0 89 16 121 52 18 20 252 385 369 576 21 34 41 62 45 62
4 0 21 -51 37 -112 17 -62 54 -196 82 -297 79 -284 95 -381 96 -556 0 -185
-20 -264 -86 -339 -58 -65 -107 -88 -202 -94 -149 -9 -235 56 -290 221 -4 9
-13 17 -22 17 -30 0 -112 -88 -141 -153 -27 -57 -29 -71 -29 -183 0 -119 0
-121 38 -196 168 -341 717 -346 1172 -11 108 80 343 315 440 441 39 50 73 91
76 91 4 1 12 -27 18 -61 18 -96 49 -184 98 -280 200 -391 706 -509 1193 -277
207 99 454 287 637 485 97 105 100 105 102 1 3 -142 67 -311 150 -396 91 -93
208 -135 381 -134 280 1 517 147 747 458 l22 30 1 -130 c1 -248 59 -376 199
-439 211 -94 458 0 739 282 57 57 106 101 109 99 2 -3 -131 -425 -296 -937
-166 -512 -301 -943 -301 -957 0 -35 15 -59 47 -71 43 -17 238 -35 291 -27
105 15 206 83 254 172 15 26 151 437 303 913 153 476 281 871 285 879 6 11 10
9 20 -10 7 -13 36 -48 64 -77 165 -175 445 -272 787 -272 350 0 630 139 971
481 l117 118 12 -37 c21 -68 98 -206 148 -268 97 -119 250 -211 436 -261 89
-23 118 -26 270 -26 152 -1 180 2 265 25 299 81 562 290 659 523 22 51 25 75
25 165 0 77 -5 115 -17 143 -10 20 -20 37 -23 37 -4 0 -44 -36 -90 -79 -150
-142 -318 -239 -481 -277 -89 -21 -268 -15 -333 11 -114 46 -186 126 -228 253
-24 70 -26 92 -27 242 0 231 -9 216 125 223 131 8 322 45 451 88 350 116 644
356 774 631 115 243 92 493 -60 644 -66 66 -191 128 -304 150 -114 22 -332 15
-446 -16 -117 -31 -307 -127 -422 -214 -103 -78 -247 -220 -324 -321 -186
-243 -334 -550 -405 -840 -28 -114 -54 -300 -54 -382 0 -44 -7 -70 -36 -126
-137 -269 -358 -478 -584 -551 -121 -39 -134 -40 -165 -13 -45 38 -37 65 47
164 320 376 546 841 638 1308 31 154 38 398 16 524 -28 161 -103 303 -201 381
-129 103 -312 143 -488 105 -127 -27 -332 -139 -421 -231 l-35 -36 -25 51
c-32 63 -77 108 -153 154 -46 28 -79 39 -165 53 -107 18 -108 18 -135 -2 -21
-16 -34 -42 -55 -110 -101 -336 -300 -979 -366 -1187 -86 -266 -103 -304 -249
-527 -198 -301 -406 -516 -535 -550 -33 -9 -44 -8 -65 6 -25 16 -26 19 -20 93
11 156 314 1059 588 1752 60 151 109 287 109 301 0 14 -6 30 -13 36 -13 12
-435 132 -461 132 -27 0 -43 -28 -86 -146 l-43 -117 -22 60 c-59 164 -157 253
-325 294 -89 22 -251 17 -340 -10 -201 -62 -392 -199 -577 -415 -235 -274
-433 -634 -559 -1015 -40 -120 -51 -142 -114 -226 -251 -334 -531 -557 -780
-621 -129 -32 -285 -18 -394 38 -101 51 -185 168 -220 303 -76 298 42 777 283
1143 70 106 200 246 275 296 114 76 257 97 310 47 65 -61 51 -220 -38 -415
-25 -54 -47 -84 -92 -124 l-59 -53 29 -54 c36 -69 136 -164 213 -201 104 -52
219 -36 295 40 94 93 189 418 190 646 1 195 -44 322 -152 431 -97 98 -242 155
-425 166 -455 27 -891 -264 -1194 -798 -103 -179 -193 -409 -236 -599 -44
-195 -57 -240 -90 -306 -19 -40 -56 -96 -83 -125 -47 -52 -137 -129 -151 -129
-5 0 -11 55 -14 123 -9 214 -68 425 -209 750 -39 89 -99 230 -135 312 -107
246 -163 438 -163 555 0 41 12 79 61 188 65 148 167 415 220 580 29 89 31 104
19 116 -16 16 -444 146 -479 146 -11 0 -27 -10 -35 -23z m9393 -1208 c127 -44
44 -299 -163 -504 -86 -85 -225 -184 -335 -239 -88 -44 -239 -101 -247 -93
-11 10 43 152 103 272 124 250 284 440 443 524 86 46 146 58 199 40z m-2314
-23 c65 -28 93 -139 75 -307 -50 -495 -363 -1199 -617 -1391 -90 -68 -157 -83
-231 -53 -90 38 -124 102 -130 240 l-4 100 107 335 c89 279 119 359 178 475
171 339 372 567 531 606 46 11 54 10 91 -5z m-2449 -37 c59 -57 68 -87 68
-234 0 -100 -5 -151 -22 -220 -105 -429 -350 -888 -605 -1132 -103 -98 -170
-136 -245 -137 -47 -1 -57 3 -78 27 -36 42 -47 99 -41 212 23 449 397 1243
690 1464 69 53 93 62 150 57 38 -2 55 -10 83 -37z"/>
</g>
</svg>
