<svg width="915" height="115" xmlns="http://www.w3.org/2000/svg" preserveAspectRatio="xMidYMid meet">

 <g>
  <title>Layer 1</title>
  <g id="svg_1" transform="translate(0 450) scale(0.1 -0.1)" fill="#0075BC">
   <path id="svg_2" d="m7400,4385.625l0,-90l110,0l110,0l0,90l0,90l-110,0l-110,0l0,-90z"/>
   <path id="svg_3" d="m275,4432.625c-90,-30 -161,-91 -192,-165c-18,-43 -19,-164 -3,-207c31,-83 111,-136 270,-180c180,-49 220,-73 220,-132c0,-118 -212,-125 -375,-13c-24,16 -46,30 -48,30c-3,0 -31,-32 -63,-71l-57,-70l29,-24c50,-41 169,-95 245,-111c93,-20 214,-14 287,14c119,46 173,118 180,242c10,170 -56,238 -298,308c-58,17 -117,35 -132,41c-70,27 -91,96 -42,142c23,21 35,24 104,24c72,0 84,-3 159,-41l81,-42l46,66c25,36 48,72 51,78c6,17 -66,62 -147,92c-80,30 -250,40 -315,19z"/>
   <path id="svg_4" d="m5539,4429.625c-158,-48 -241,-199 -195,-356c12,-41 27,-65 57,-93c51,-46 93,-65 234,-105c61,-18 128,-42 150,-53c75,-41 68,-120 -13,-154c-78,-33 -225,2 -321,74l-35,27l-44,-50c-24,-27 -51,-60 -60,-73c-15,-23 -15,-25 13,-48c51,-41 167,-93 245,-109c89,-19 211,-14 284,12c76,26 150,104 171,178c34,117 1,231 -82,289c-51,35 -99,54 -222,89c-57,16 -117,36 -132,44c-68,34 -75,108 -16,145c27,17 45,20 106,16c62,-3 86,-11 151,-45l78,-40l51,76c58,88 60,81 -41,133c-111,56 -276,75 -379,43z"/>
   <path id="svg_5" d="m1897,4215.625c-186,-47 -311,-236 -279,-423c21,-129 90,-225 200,-279c63,-31 72,-33 177,-33c125,0 169,15 247,85l43,38l-59,60l-58,60l-44,-33c-82,-63 -182,-60 -250,8c-83,83 -85,213 -4,298c65,68 152,73 240,14l48,-32l56,56c31,31 56,62 56,68c0,20 -80,81 -129,98c-55,20 -191,28 -244,15z"/>
   <path id="svg_6" d="m2570,4210.625c-169,-47 -280,-208 -268,-388c9,-139 88,-256 213,-314c54,-25 71,-28 165,-28c93,0 111,3 160,26c30,15 72,42 93,60l38,34l-59,58l-59,58l-51,-32c-139,-86 -289,-15 -300,141c-5,72 11,122 55,171c67,74 190,74 257,0c11,-12 23,-21 27,-21c4,0 33,29 65,65l57,66l-24,25c-13,14 -51,39 -86,55c-77,38 -195,48 -283,24z"/>
   <path id="svg_7" d="m3243,4211.625c-104,-34 -176,-98 -222,-196c-23,-49 -26,-67 -26,-170c0,-107 2,-119 29,-173c36,-70 99,-130 174,-165c51,-24 69,-27 167,-27c91,0 118,4 156,21c46,21 129,89 129,104c0,5 -24,29 -54,55l-54,46l-47,-33c-43,-31 -52,-33 -125,-33c-64,0 -84,4 -107,21c-35,26 -73,81 -73,105c0,18 13,19 251,19l251,0l-4,88c-3,71 -10,99 -34,152c-42,89 -74,124 -149,161c-75,37 -192,48 -262,25zm164,-163c37,-17 77,-70 87,-115l6,-28l-159,0l-160,0l9,29c30,107 126,157 217,114z"/>
   <path id="svg_8" d="m3941,4209.625c-95,-25 -153,-83 -171,-168c-12,-59 -2,-118 26,-162c25,-37 90,-73 192,-106c114,-37 142,-53 142,-82c0,-32 -13,-45 -51,-56c-48,-14 -130,4 -206,45l-62,34l-41,-65c-22,-36 -38,-68 -36,-73c3,-5 38,-24 78,-44c116,-56 222,-70 325,-44c75,20 119,54 149,114c22,45 26,63 22,117c-7,107 -52,146 -257,222c-83,30 -114,54 -104,81c17,50 94,57 188,17c33,-14 66,-26 74,-27c13,-2 81,103 81,124c0,16 -101,60 -169,75c-81,17 -111,17 -180,-2z"/>
   <path id="svg_9" d="m4575,4218.625c-75,-17 -117,-38 -153,-77c-50,-55 -70,-125 -52,-193c22,-91 63,-125 206,-172c118,-38 142,-50 149,-73c28,-85 -114,-99 -251,-24l-62,35l-43,-66c-50,-76 -51,-74 56,-123c153,-71 332,-63 419,18c65,61 85,175 46,253c-27,51 -84,87 -206,130c-91,32 -144,65 -144,89c0,5 9,19 20,30c28,28 100,26 175,-6c33,-14 67,-26 75,-27c13,-2 79,103 80,126c0,15 -126,66 -190,76c-67,11 -91,12 -125,4z"/>
   <path id="svg_10" d="m6341,4204.625c-86,-28 -177,-115 -211,-204c-34,-85 -34,-228 -2,-300c36,-78 70,-121 125,-159c143,-96 355,-86 480,24c20,17 37,35 37,39c0,3 -25,27 -54,54l-55,47l-51,-32c-69,-43 -156,-50 -217,-19c-40,20 -73,62 -88,109l-6,22l255,0l256,0l0,50c0,164 -81,306 -207,362c-69,30 -182,33 -262,7zm197,-166c37,-27 61,-63 68,-100l7,-33l-158,0l-157,0l7,28c10,44 50,97 86,116c42,21 111,16 147,-11z"/>
   <path id="svg_11" d="m7245,4213.625c-49,-18 -83,-47 -112,-96l-28,-47l-3,73l-3,72l-99,0l-100,0l0,-365l0,-365l99,0l99,0l4,183c3,167 5,186 27,230c30,61 74,95 145,109l56,12l0,103l0,103l-27,-1c-16,0 -41,-5 -58,-11z"/>
   <path id="svg_12" d="m7969,4212.625c-103,-29 -181,-96 -228,-197c-23,-49 -26,-67 -26,-170c0,-107 2,-119 29,-173c36,-70 99,-130 174,-165c51,-24 69,-27 167,-27c99,0 115,3 165,27c56,28 120,79 120,97c0,5 -25,31 -55,56l-55,47l-30,-25c-16,-14 -46,-31 -66,-37c-51,-17 -148,-8 -182,17c-34,25 -72,80 -72,104c0,18 13,19 250,19l250,0l0,69c0,209 -128,355 -320,367c-45,2 -93,-1 -121,-9zm180,-174c29,-23 56,-65 65,-105l6,-28l-159,0l-160,0l9,29c16,57 52,100 100,120c36,15 108,7 139,-16z"/>
   <path id="svg_13" d="m8661,4209.625c-126,-34 -197,-143 -170,-263c19,-86 67,-125 217,-173c122,-39 142,-52 142,-90c0,-70 -131,-71 -257,-3l-62,34l-41,-66c-47,-75 -49,-72 55,-122c169,-82 375,-59 451,50c23,33 29,55 32,109c7,119 -37,172 -192,230c-149,56 -166,66 -166,100c0,56 83,67 185,24c33,-14 66,-26 74,-27c8,-1 31,27 52,63l37,65l-55,28c-57,29 -165,57 -218,56c-16,0 -54,-7 -84,-15z"/>
   <path id="svg_14" d="m870,3942.625c0,-308 5,-339 67,-401c47,-47 118,-70 193,-63c67,6 107,24 155,72c19,19 37,35 40,35c3,0 5,-22 5,-50l0,-50l100,0l100,0l0,365l0,365l-99,0l-99,0l-4,-227c-3,-248 -7,-267 -61,-307c-20,-15 -43,-21 -78,-21c-42,0 -53,5 -81,33l-33,32l-3,245l-3,245l-99,0l-100,0l0,-273z"/>
   <path id="svg_15" d="m7410,3850.625l0,-365l100,0l100,0l0,365l0,365l-100,0l-100,0l0,-365z"/>
  </g>
 </g>
</svg>
