<svg xmlns="http://www.w3.org/2000/svg" width="150" height="191" viewBox="0 0 1076.09 1369"><title>Failed to Load</title><path fill="#53648F" d="M1004.14,1162.75c-1,8.45-1.77,15-2.66,21.57-1.94,14.27-3.89,28.53-6,42.78q-5.21,35.63-10.57,71.22c-4.21,28.23-9.85,56.19-15.44,84.17-5.22,26.15-11,52.17-18.4,77.8a789.7,789.7,0,0,1-30.36,87.59,235.12,235.12,0,0,1-47.47,72.56c-19.46,20.3-40.51,38.59-64.72,53.17a205.4,205.4,0,0,1-63.69,25c-38.68,8.25-77,6-114.64-5.53-44.21-13.49-81.11-38.21-111.65-73-26.43-30.08-41.76-65.35-51.11-103.66-5.95-24.42-9-49.3-10.82-74.34a835.85,835.85,0,0,1-1.94-90.37,1008.71,1008.71,0,0,1,10.61-115.46c10.12-66,25.37-130.83,43.81-194.94,8.55-29.74,19.39-58.7,30.47-87.57,12.32-32.1,24.33-64.32,38.34-95.74,15.45-34.67,35.91-66,62.11-93.5,17.18-18,36-34.09,57.65-46.67,11.57-6.72,23.95-11.66,36.33-16.59,2.19-.87,4.44-1.56,6.88-2.4.35-4.48.71-8.71,1-12.94,2.06-28.3,8-55.93,14.37-83.48,3.35-14.47,6.42-29,11.85-42.94.34-.89.66-1.8,1-2.71,2.92-8.59,8-14.88,17.31-16,1.88-3.88,3.48-7.54,5.39-11a11.56,11.56,0,0,1,8-6.18c4.69-.93,9.08-.53,12,4,.58.88,1.26,1.69,2.21,2.95,1.26-1.6,2.28-3,3.43-4.33,1.74-2,3.47-4.05,5.38-5.88,2.57-2.46,5.67-2.83,8.93-1.62,3.52,1.32,6.94,2.8,9.22,6,.58.82,1.29,1.55,2.55,3A26.25,26.25,0,0,0,845,523.6c4.86-36.52,19.6-68.61,44.41-95.7,15.16-16.57,32.15-31.22,52.53-41.36,6.92-3.45,13.75-7.07,20.72-10.4,18.24-8.71,37.55-13.47,57.6-15.68a248.85,248.85,0,0,1,55.44-.35,55.89,55.89,0,0,1,15,3.82c6.9,2.83,14.08,5,20.44,9.14a126.57,126.57,0,0,1,21.34,18c3.35,3.44,6.79,6.79,10.16,10.2A116.48,116.48,0,0,1,1162,426.66a202.8,202.8,0,0,1,18,45.2c3.22,11.82,6.67,23.58,8.08,36,1-.09,2,.12,2.39-.27,4-3.61,8.73-4.93,14.45-4.28a40.7,40.7,0,0,1,2.11-4.1c4.86-7.34,14.38-10.69,22.53-7.64,2.38.9,4.35,2.88,6.75,4.53,1.3-.52,2.73-1.14,4.2-1.65,6.08-2.13,11.24-1.29,16,3.66,6.68,7,12.53,14.46,16.21,23.53,5.27,13,8.16,26.55,9.68,40.32,1.56,14,2,28.19,2.85,42.29.24,4,.21,8,.3,11.82,3.11,1.39,5.63.12,8.16-.32,14.21-2.47,28.46-4.35,42.92-4.51,11.57-.13,22.79,2.35,34.07,4.31,28.24,4.91,53,17.6,75.49,34.85,10.49,8,18.74,18.2,26.09,29.07a262.38,262.38,0,0,1,21.12,36.72,191.68,191.68,0,0,1,9.32,23.79,351.6,351.6,0,0,1,13.63,60.79c1.42,11.37,3.65,22.64,5.18,34a640.84,640.84,0,0,1,5.5,71c.38,16.53-.19,33.1.68,49.61,2.34,44.79,1,89.63,2.38,134.43.87,29.1-1.31,58.11-3.62,87.11-1.59,19.94-2.81,39.91-3.92,59.88-1.28,22.91-1.91,45.85-3.48,68.74-1,15.15-3,30.25-5,45.32-3.27,25.13-7.2,50.15-12.38,75-11.74,56.35-29.2,110.78-54.39,162.63-12.88,26.53-29.1,50.85-47.68,73.71-23.17,28.5-52.71,46.91-87.78,57.07-28.34,8.22-57.08,10.66-86.29,6.55a174.59,174.59,0,0,1-38.58-10.21C1141.54,1698,1108,1666.9,1084,1625c-14.25-24.85-24.9-51.24-33.68-78.49-9.5-29.5-16.27-59.65-22.33-90q-5.71-28.62-10.31-57.46c-1.88-11.83-3-23.81-4-35.77q-7.67-93-7.58-186.26c0-3.73-.18-7.47-.34-11.2C1005.73,1165.37,1005.29,1164.92,1004.14,1162.75Zm7.13-705.47-2.33,2.56-2.47,2.25-1.83,1.38c-13.71,11.52-28.7,21.22-43.91,30.6a29,29,0,0,1-5,2.45,2.52,2.52,0,0,1-2.11-.68,2.37,2.37,0,0,1-.56-2.07,33.64,33.64,0,0,1,3.12-5.52c3.72-5.21,7.57-10.32,11.35-15.49a13.61,13.61,0,0,0,2.15-3.33c.27-.77-.28-1.82-.46-2.71-3.37.25-5.12,2.47-7.25,4-13.88,9.91-27.27,20.49-42.08,29.1-13.6,7.89-26.77,16.49-40.8,23.66A76.34,76.34,0,0,0,849.79,550a15.82,15.82,0,0,0-3,8.09c-.42,8-1.21,16-1.69,23.94-.68,11.45-1.24,22.9-1.83,34.35-.83,16.25-1.93,32.49-2.38,48.74-.33,12-.08,24,.38,36A182.91,182.91,0,0,0,853,759.7c3.45,9,8,17.39,14.56,24.62a235.65,235.65,0,0,0,36.52,32.24c16.64,12,33.34,24,49.73,36.34,14.37,10.83,27,23.46,35.77,39.4,5.16,9.33,9.94,18.84,13.23,29.05.76,2.34.67,5.31,3.57,7.2,1.11-5.84,2-11.25,3.19-16.58,2.79-12.1,8.62-22.9,14.79-33.52a147.55,147.55,0,0,1,47.9-50.67c7.83-5.06,15.79-9.93,23.68-14.9,3.83-2.42,7.74-4.74,11.42-7.36,18.49-13.2,33.48-29.77,46-48.63a80.47,80.47,0,0,0,7.54-14.24c4.9-12,9.64-24.09,13.94-36.32a150.81,150.81,0,0,0,8.46-48.64c.12-12,0-24,.09-36,.18-19.66.5-39.33.74-59q0-3.15-.17-6.3a59.84,59.84,0,0,0-1.36-10.55,36.84,36.84,0,0,0-8.81-16.75c-7.62-8.11-15.62-15.68-24.86-21.9-1.81-1.22-4.62-3.4-6.29-4.8a322.93,322.93,0,0,1-33.38-32.79,39.43,39.43,0,0,1-4.87-7.2c-4.41-8.83-8.77-17.71-12.87-26.69-2-4.48-3.41-9.25-5.24-14.28-2.92,2-5.61,3.65-8.17,5.53-17.65,12.92-36.07,24.7-54.64,36.25-3.62,2.25-7.38,4.26-11.12,6.31a9.28,9.28,0,0,1-3,1,2.3,2.3,0,0,1-2.71-2.25,5.44,5.44,0,0,1,0-.57,6,6,0,0,1,1.6-4C1009.6,462.13,1011.63,459.5,1011.27,457.28Zm4,561.2c0,3.44,0,5.8,0,8.15-.29,13.06-.13,26.16-1,39.18-1.89,27.68-4,55.33-3.66,83.11.24,18.14.31,36.28.63,54.42.39,22.67.5,45.36,1.57,68,1.43,30.1,3.38,60.18,5.69,90.23,1.24,16.2,3.23,32.38,5.76,48.43,2.87,18.16,6.47,36.22,10.21,54.22,5,24,10.22,48,17.53,71.41,8.34,26.77,17.88,53,31.12,77.84a254.21,254.21,0,0,0,30,44.31c23.16,27.53,52.44,45.81,86.37,56.85a164.48,164.48,0,0,0,27.21,6.3c28.11,4.07,55.78,1.6,83.12-6.18,35.2-10,64.56-28.59,87.51-57.3,17.55-22,33.06-45.16,45.39-70.45,25.15-51.58,42.55-105.74,54.28-161.81,5.18-24.81,9.12-49.83,12.39-75,2-15.07,3.89-30.17,5-45.32,1.48-20.75,2-41.56,3.2-62.33,1.21-21.57,2.35-43.15,4-64.68,2.3-29,4.21-58,3.81-87.1-.45-32-.66-64-1.19-96-.46-27.47-1.34-54.93-1.83-82.4a670.2,670.2,0,0,0-5.88-78.94c-1.47-10.83-3.61-21.57-5-32.41-2.59-20.72-7.57-40.89-13.74-60.76a171.09,171.09,0,0,0-8.15-20.82,264.24,264.24,0,0,0-21.91-38.1c-7.08-10.42-15.12-20.07-25.21-27.71-21.54-16.28-45.08-28.36-71.92-33.24-14.7-2.68-29.4-5.55-44.46-3.91-10.07,1.09-20.15,2.24-30.15,3.81-3.28.51-7,.54-10.15,3.31,0,2.44,0,5.07,0,7.7-.17,25.06.77,50.13-1.78,75.16-2.53,24.75-10,47.39-26.1,66.72-7.7,9.21-15,18.73-23,27.67-18.46,20.63-34.38,43.09-49.2,66.38a89.14,89.14,0,0,0-5.92,11c-4.2,9.21-8.5,18.39-12.23,27.8-7.89,20-13.09,40.69-14.38,62.1-.91,15.14-.09,30.38,0,45.58a14.06,14.06,0,0,0,1.07,3.68l3.33,1c11.57,3.15,23.18,6.15,34.69,9.52a114.87,114.87,0,0,1,14.11,5.52,15.72,15.72,0,0,1,8.82,9.77c4.73,13.87,10,27.56,14.53,41.5q30.57,94.3,57.54,189.73c10.77,37.94,22.17,75.71,32.6,113.74,8.88,32.38,16.79,65,25.09,97.57,1.45,5.68,2.87,11.37,4.07,17.11a19.21,19.21,0,0,1-.13,5.45,1.53,1.53,0,0,1-1.11,1,2.79,2.79,0,0,1-2-.74,9.19,9.19,0,0,1-1.09-2.93c-3-11.82-6-23.65-8.85-35.49q-19.44-79.35-42.48-157.76c-20-67.7-39-135.68-60.72-202.87q-8.23-25.49-16.69-50.9c-1-2.93-1.55-6.17-3.85-8.33a5.93,5.93,0,0,0-1.86.21c-7.34,4.14-15.18,4.66-23.29,3.35-14.21-2.29-28.47-4.16-42.47-7.73q-29.43-7.5-59.11-14c-19.26-4.24-38.64-7.93-58-11.78C1023.81,1019.47,1020.1,1019.15,1015.29,1018.48Zm-275.11-313c-3.1-1-5.55.39-7.91,1.38-15.77,6.57-31.27,13.59-45.4,23.41A282.66,282.66,0,0,0,656.45,755,294.06,294.06,0,0,0,608,813.27a409.7,409.7,0,0,0-34.79,68.33c-13.29,33.15-26,66.53-38.83,99.86q-12.93,33.66-22.69,68.41c-16.35,58.27-30.52,117-39.91,176.86-3.47,22.14-6.84,44.29-8.69,66.63-3.08,37-4.84,74-3.51,111.13,1.26,35.22,3.77,70.31,11.24,104.87,7.3,33.76,19.84,65.22,40.3,93.27,18.46,25.33,40.83,46.29,68.06,62.1,16.44,9.54,33.33,17.86,51.54,23.46,32.09,9.87,64.77,13,98.06,8.45a205.16,205.16,0,0,0,84.07-31.13c16.24-10.42,30.83-22.83,44.86-36a247,247,0,0,0,62.26-92,875.12,875.12,0,0,0,40.91-137c8.49-40.73,16.46-81.54,22.47-122.72q3.88-26.52,7.68-53c1.64-11.34,3.53-22.66,4.87-34,1.93-16.42,3.32-32.9,5.21-49.32,2.56-22.26,5.45-44.47,6.33-66.89.66-16.79,1.66-33.56,2.45-50.35a29.75,29.75,0,0,0-.54-4.69c-5.32,0-9.72,2-14.13,3.74-18.62,7.3-37.13,14.84-55.8,22q-18.69,7.15-36.57,16.09a452.28,452.28,0,0,1-42.38,18.79c-8.49,3.19-17,4.8-25.52-.92-1.45,3.33-2.78,6.19-3.95,9.12-8.47,21.13-16.94,42.26-26.43,63-11.44,25-21.7,50.46-31.11,76.27-12.19,33.44-24.56,66.83-36.84,100.24-7.91,21.51-15.94,43-23.66,64.56-6.74,18.82-13.12,37.77-19.68,56.65a12,12,0,0,1-1.65,3.6,3.87,3.87,0,0,1-2.64,1c-.29,0-1-1.3-.91-1.87a63.77,63.77,0,0,1,2-7.71c7.24-21.18,14.24-42.46,21.9-63.49,17.86-49.09,36-98.06,54.12-147.08,8.3-22.51,16.33-45.14,26.37-66.94,13.78-29.91,26.08-60.43,38.65-90.84a84.3,84.3,0,0,0,2.85-8,27.67,27.67,0,0,1,9-13.72,110.22,110.22,0,0,1,19.09-13.13c7-3.88,14.09-7.57,21.15-11.32,4.42-2.36,8.86-4.69,13.18-7,0-2,.12-3.64,0-5.22-.85-9.19-1.53-18.4-2.61-27.57A136.28,136.28,0,0,0,862.13,917a254.67,254.67,0,0,0-29.69-28.88c-10.18-8.6-20.37-17.27-31.24-24.95A158.18,158.18,0,0,1,758,817.71c-12.39-19.67-19.16-41-18.6-64.35q.51-21.6,1-43.19C740.43,708.61,740.26,707.06,740.18,705.53Zm409.13,336c.71-6.06,0-12.14-.18-18.23-.47-14.66-1-29.32-1.31-44-.24-12.6,1.56-25,4.22-37.29,7.09-32.63,19.07-63.22,38.5-90.63.74-1.06,1.45-2.14,2.12-3.24,11-18.17,24.83-34.1,38.45-50.25q13.92-16.5,27.28-33.49c9-11.53,14.52-24.76,17.7-39a193.3,193.3,0,0,0,4.59-40.48q.39-42.81-.39-85.63c-.36-18.39-1.59-36.75-5.71-54.82a128.5,128.5,0,0,0-7.82-24.3A58.74,58.74,0,0,0,1251.3,500a8.18,8.18,0,0,0-9.6-.62c-2,1.4-2.36,4.52-1,8,.4,1,.88,1.94,1.3,2.92a135.86,135.86,0,0,1,9.19,28.91c3.16,17,5.62,34.2,5.57,51.62,0,6.4-.12,12.83.42,19.2,2,24-.13,48,1.17,72a3.57,3.57,0,0,1-.35,2.32,4.31,4.31,0,0,1-2.5,1.42c-.49.08-1.43-.79-1.64-1.41a10.65,10.65,0,0,1-.29-3.16c-.15-6.93-.4-13.87-.39-20.8,0-17.26.62-34.52-.88-51.75a80.31,80.31,0,0,1-.29-9c.52-19-1.66-37.82-4.93-56.5-2.59-14.83-8.18-28.65-14.56-42.2-2-4.24-5.39-5.63-9.74-5.48a14.44,14.44,0,0,0-8.2,2.78c-4.33,3.17-5.45,7.1-2.75,11.8a64.24,64.24,0,0,1,6.27,16.37c2,7.75,3.93,15.53,5.24,23.4,3.07,18.47,3.81,37.14,3.4,55.83-.63,29.07-1.45,58.13-2.18,87.2,0,1.33-.06,2.67-.07,4,0,1.7-.41,3.22-2.21,3.82-1.28.43-2.55-1.48-2.49-4.18.31-13.33.62-26.67,1.1-40,1-27.2,1.73-54.39.41-81.6a208.88,208.88,0,0,0-9.48-52.59,41.11,41.11,0,0,0-5.06-10.79c-3.42-5-8-4-11.62-1.11a10.71,10.71,0,0,0-2.9,4.07,55.72,55.72,0,0,0-2.69,9.83,80.16,80.16,0,0,0-.62,11.18q-.29,27.62-.44,55.22c-.17,23.21-.26,46.41-.51,69.62a151.22,151.22,0,0,1-4.32,32.44c-3.51,15.13-9.41,29.43-15,43.84-2.9,7.45-5.87,14.89-10.35,21.59a229.53,229.53,0,0,1-21,27.18c-12.88,14.12-28,25.37-44.42,35a259.92,259.92,0,0,0-29.24,19.51c-19.62,15.49-33.79,35.39-44.12,58.08a80.19,80.19,0,0,0-6.32,19.74,144,144,0,0,0-.64,45.4c1.24,8.42,1.89,16.95,2.47,25.46.56,8.15.69,16.32,1,24.82,44.28,8.06,88.06,17.29,131.45,28.34A6.35,6.35,0,0,0,1149.31,1041.54Zm-138.92-30.72c0-4.38.26-8.37,0-12.31-.92-11.69-2.17-23.36-3.11-35-1.91-23.78-9.49-45.82-20.67-66.69a117.47,117.47,0,0,0-10.13-15.3,128.23,128.23,0,0,0-25.8-25q-23.42-17.44-47.13-34.46c-13.45-9.69-26.19-20.13-37.5-32.32a81.46,81.46,0,0,1-15.75-23.9,177.65,177.65,0,0,1-12.77-51c-2.08-19.93-1.89-40-1.05-60q1.26-29.57,2.87-59.12c.45-8.52,1.33-17,1.79-25.53.51-9.32.68-18.65,1.14-28,.28-5.72-2.06-10.58-5.41-14.69-3.73-4.58-9.48-7-13.91-.53a52.48,52.48,0,0,0-5,8.15,59.35,59.35,0,0,0-3.85,11.33c-2,9.11-3.92,18.26-5.19,27.49-4.41,32-8.3,64-10.4,96.19-.41,6.38-.78,12.78-1.36,19.15a30.68,30.68,0,0,1-1.52,6.11,1.49,1.49,0,0,1-1.31.65c-.66-.21-1.51-.67-1.7-1.23a8.06,8.06,0,0,1-.31-3.14c.84-12.77,1.47-25.56,2.65-38.3,1.58-17,3.5-34,5.45-50.9s4-33.88,7.6-50.58a52.88,52.88,0,0,0,.9-18.3c-.74-5.55-6.47-7.58-10.77-3.94a11.82,11.82,0,0,0-2.91,3.75,50.9,50.9,0,0,0-4,9.56c-2,8-3.76,16.1-5.18,24.23-2.19,12.6-4.1,25.25-5.95,37.91-1.82,12.39-3.74,24.79-5,37.24-1.56,15.39-2.45,30.83-3.71,46.25a75.05,75.05,0,0,1-1.28,8.68c-.29,1.44-1.33,2.24-3.25,1.23a32.31,32.31,0,0,1-.28-4.49c1.3-18.36,2-36.78,4.14-55,3.5-29.37,7.85-58.65,13.49-87.7a36.27,36.27,0,0,0,.28-4.8c-6.08,2.44-7.41,3.3-9.62,9.07-2.94,7.71-5.67,15.52-7.88,23.46-2.78,10-5,20.17-7.35,30.29-4.68,20.26-9.14,40.6-11.39,61.28-3.38,31-5,62.14-3.78,93.36a80,80,0,0,0,4.1,22.44c8,23.6,21.2,43.94,39.95,60.31,10,8.75,21.09,16.28,31.48,24.62,15.82,12.68,31,26.07,44.63,41.18a138.65,138.65,0,0,1,23.19,36.23,126.27,126.27,0,0,1,10.5,38.4c2.24,20.41,4,40.86,4,61.42,0,2,.34,4.06.51,5.93.78.18,1.09.36,1.29.28,32.51-14.76,66.5-25.86,99.08-40.44C1005.35,1013.4,1007.46,1012.27,1010.39,1010.82Z" transform="translate(-454.22 -358.72)"></path><path fill="#FEFEFE" d="M1008.62,460.19c0,.87.09,1.75.13,2.62a1.8,1.8,0,0,1-.85.91l-1.44-1.62Z" transform="translate(-454.22 -358.72)"></path><path fill="#FEFEFE" d="M1007.9,463.72l-1,1.39-2.24-1.64,1.82-1.37Z" transform="translate(-454.22 -358.72)"></path><path fill="#53648F" d="M976.13,647q1.68-19.5,3.38-39c0-.26,0-.62.16-.76a8,8,0,0,1,2.23-1.76c.28-.11,1.41.88,1.49,1.46a37.8,37.8,0,0,1,.44,7.12c-.42,6.38-1.12,12.73-1.59,19.1s-.8,12.75-1.13,19.13a28.4,28.4,0,0,0,.18,4.79c1.28,10.79,11,15.82,20.56,10.49a35,35,0,0,0,16.16-18.1c1.21-3.08,3.2-4.55,4.16-3.57,1.55,1.58,1.13,3.41.45,5.21a38.86,38.86,0,0,1-19.45,21.35c-12.39,6.31-25.48-1.15-26.8-15.09-.32-3.43,0-6.91,0-10.37Z" transform="translate(-454.22 -358.72)"></path><path fill="#53648F" d="M958.41,762.35a1.72,1.72,0,0,1-1.76-2.58,1,1,0,0,1,.32-.29,34,34,0,0,1,5.92-2.27c33.67-9.87,67.4-19.51,101.78-26.69a38.47,38.47,0,0,1,7.35-.81,3,3,0,0,1,1.84,1.71,2.22,2.22,0,0,1-.94,1.83,9.31,9.31,0,0,1-3,1c-36,7.13-71.28,17.24-106.61,27.1A44,44,0,0,1,958.41,762.35Z" transform="translate(-454.22 -358.72)"></path><path fill="#53648F" d="M1072,583.7c.12,3.72-1.8,6.32-4.94,6.67-3.51.4-6.34-2.47-6.34-6.43,0-3.48,2.35-6.11,5.53-6.15S1071.86,580.12,1072,583.7Z" transform="translate(-454.22 -358.72)"></path><path fill="#53648F" d="M926.17,598.14c.12,3.75-1.81,6.37-5,6.73-3.53.4-6.38-2.49-6.39-6.48,0-3.51,2.37-6.15,5.57-6.2S926,594.54,926.17,598.14Z" transform="translate(-454.22 -358.72)"></path></svg>